<svg id="Camada_1" data-name="Camada 1" xmlns="http://www.w3.org/2000/svg" viewBox="0 0 621.16 292.8"><defs><style>.cls-1{fill:#e52516;}</style></defs><title>logo2</title><g id="_Grupo_" data-name="&lt;Grupo&gt;"><path id="_Caminho_composto_" data-name="&lt;Caminho composto&gt;" class="cls-1" d="M466.3,214.8c3.8,0,10.2,5.1,10.2,11.5,0,3.8-1.3,6.4-5.1,8.9-1.3,1.3-3.8,1.3-5.1,2.6,1.3-3.8,1.3-7.7,1.3-11.5a76.69,76.69,0,0,1-1.3-11.5m-5.1-84.3c-33.2,1.3-61.3,29.4-76.7,49.8,2.6,1.3,5.1,2.6,7.7,3.8,2.6,2.6,7.7,6.4,12.8,10.2,3.8-8.9,12.8-26.8,26.8-42.2,12.8-14.1,34.5-15.3,46-6.4,7.7-6.4,31.9-12.8,46-8.9-7.7-8.9-25.6-20.4-44.7-20.4-15.3,0-24.3,7.7-26.8,3.8s10.2-11.5,10.2-11.5c-17.9,1.3-31.9,23-37.1,19.2-3.8-1.3,5.1-11.5,5.1-11.5-16.6,10.2-30.7,30.7-34.5,43.5,15.4-19.2,44.8-33.2,65.2-29.4M383.3,237.8c-6.4-6.4-16.6-14.1-24.3-20.4-8.9,14.1-26.8,33.2-44.7,33.2-33.2,0-49.8-47.3-12.8-86.9a9.53,9.53,0,0,0-5.1-1.3,18,18,0,0,0-8.9,2.6l-15.3,10.2L276,156l1.3-2.6a68.24,68.24,0,0,0-20.4,14.1l-14.1,15.3,1.3-23c0-1.3,1.3-3.8,1.3-5.1a31.18,31.18,0,0,0,1.3-10.2l-1.3-1.3c-6.4,5.1-25.6,21.7-28.1,47.3,0,0,3.8-5.1,6.4-6.4s3.8,0,2.6,6.4c-1.3,2.6-19.2,52.4,16.6,86.9,0,0-3.8-10.2-1.3-12.8,1.3-1.3,2.6-1.3,5.1,1.3,1.3,2.6,2.6,3.8,5.1,6.4h0c2.6,3.8,6.4,6.4,10.2,8.9a72.21,72.21,0,0,0,42.2,14.1c44.7,0,67.7-30.7,81.8-56.2l-2.7-1.3m129,5.2c0-21.7-20.4-38.3-44.7-35.8,6.4,1.3,16.6,8.9,16.6,19.2,0,16.6-20.4,21.7-31.9,19.2,12.8-8.9,10.2-33.2-3.8-42.2,5.1,14.1-10.2,26.8-24.3,15.3-7.7-6.4-26.8-21.7-35.8-29.4-8.9-6.4-17.9-2.6-21.7-5.1-3.8-3.8-1.3-12.8-7.7-16.6-5.1-2.6-10.2-1.3-15.3-3.8a12.28,12.28,0,0,1-8.9-11.5c-2.6,3.8-2.6,11.5,1.3,15.3,3.8,5.1,10.2,7.7,14.1,12.8,3.8,6.4-2.6,15.3,14.1,28.1,7.7,6.4,19.2,15.3,26.8,23,12.8,11.5,6.4,25.6,7.7,38.3,2.6,14.1,14.1,23,21.7,24.3-6.4-6.4-8.9-21.7,0-30.7,0,11.5,8.9,30.7,29.4,35.8s43.5-6.4,48.6-15.3c-7.7,3.8-23,0-29.4-6.4,21.5,5.1,43.2-12.8,43.2-34.5M348.8,139.4a21.92,21.92,0,0,0-14.1-14.1c2.5,7.8,5.1,14.1,14.1,14.1m-120.2-1.2c10.2-10.2,31.9-16.6,33.2-23,1.3-5.1-10.2-15.3-14.1-16.6,15.3,0,23,2.6,23,2.6-3.8-6.4-5.1-15.3-2.6-21.7,8.9,20.4,38.3,23,46,40.9-1.3-7.7-7.7-15.3-15.3-20.4-3.8-11.5-1.3-31.9,3.8-37.1-1.3,29.4,39.6,46,48.6,67.7-5.1-17.9-24.3-29.4-33.2-40.9-2.6-7.7-1.3-19.2,2.6-23-1.3,19.2,20.4,34.5,31.9,46,12.8,12.8,16.6,24.3,15.3,33.2,2.6,1.3,6.4,3.8,6.4,8.9,3.8-1.3,8.9-6.4,10.2-8.9,2.6,14.1-6.4,29.4-16.6,34.5a15.23,15.23,0,0,0-1.3-12.8c-3.8-5.1-16.6-5.1-20.4-5.1,0,0,5.1-7.7,2.6-11.5-2.6-5.1-26.8-2.6-37.1,1.3,3.8,0,12.8,0,15.3,1.3-1.3,2.6-6.4,12.8-2.6,16.6,2.6,2.6,6.4-2.6,6.4-2.6s-3.8,11.5-1.3,14.1,8.9,1.3,8.9,1.3c-3.8,8.9-17.9,15.3-26.8,15.3,3.8-1.3,8.9-7.7,10.2-11.5-2.6,1.3-8.9,2.6-11.5,1.3,2.6-1.3,8.9-8.9,7.7-17.9-2.6-12.8-21.7-15.3-30.7-8.9,2.6-8.9,11.5-16.6,19.2-20.4-3.8-1.3-8.9-2.6-14.1-3.8,6.4-5.1,20.4-8.9,28.1-8.9-11.5-2.6-33.2,1.3-42.2,12.8,2.6,0,11.5,1.3,14.1,2.6-12.8,2.6-31.9,15.3-37.1,20.4,1.3-7.7,3.8-14.1,1.3-19.2-3.6-6.6-12.5-9.2-27.9-6.6m24.3-67.8c-2.6-25.6,10.2-38.3,15.3-44.7,11.5-11.5,28.1-19.2,51.1-17.9,37.1,2.6,55,28.1,55,55,0,12.8-6.4,30.7-16.6,43.5l-1.3-1.3a27.47,27.47,0,0,0-6.4-5.1,84.76,84.76,0,0,1-17.9-19.2C342.3,61.5,335.9,36,315.5,36c-12.8,0-23,11.5-21.7,26.8-3.8,7.7-5.1,17.9-3.8,26.8-6.4-3.8-11.5-7.7-14.1-14.1l-7.7-19.2-6.4,19.2c-1.3,5.1-1.3,10.2-1.3,15.3h0c-3.8-3.7-6.3-11.4-7.6-20.4" transform="translate(-9.4 -7.66)"/><path id="_Caminho_composto_2" data-name="&lt;Caminho composto&gt;" class="cls-1" d="M573,57.4c-16.6-8.9-31.9-12.8-55-14.1H473.3c-35.8,0-52.4,0-65.2-3.8-10.2-2.6-20.4-8.9-20.4-8.9l-2.6-1.3v3.8c0,1.3,2.6,25.6,31.9,46,5.1,3.8,8.9,7.7,8.9,21.7v8.9c6.4-3.8,12.8-7.7,20.4-10.2a58.75,58.75,0,0,0-7.7,8.9c5.1-3.8,11.5-6.4,21.7-7.7,14.1-2.6,23-1.3,28.1,0V97H514c33.2,0,52.4,20.4,52.4,57.5,0,35.8-19.2,57.5-52.4,57.5H504a41.14,41.14,0,0,1,14.1,30.7,35.87,35.87,0,0,1-7.7,23c30.7,0,51.1-6.4,72.8-20.4,8.9-6.4,17.9-14.1,24.3-21.7,15.3-17.9,23-43.5,23-70.3,1.3-39.7-20.4-76.8-57.5-95.9M438.8,214.6c1.3-2.6,1.3-5.1,1.3-7.7l-7.7-19.2,17.9,10.2c1.3,1.3,3.8,2.6,5.1,3.8l11.5-1.3a43.57,43.57,0,0,1,23,2.6V146.8c-3.8,1.3-7.7,2.6-8.9,3.8l-5.1,3.8-5.1-3.8a21.28,21.28,0,0,0-12.8-3.8A27.25,27.25,0,0,0,436.3,157a68.64,68.64,0,0,0-8.9,11.5v44.7c3.8,3.9,8.9,3.9,11.4,1.4m-223.6-3.9-6.4,10.2,2.6-28.1c2.6-23,15.3-38.3,25.6-47.3-2.6,0-3.8,0-6.4,1.3l-24.3,5.1L224.2,134c6.4-6.4,14.1-10.2,21.7-14.1l2.6-1.3a107.35,107.35,0,0,0-51.1-60.1c-16.6-8.9-31.9-12.8-55-14.1H97.6c-35.8,0-52.4,0-65.2-3.8C22.2,38.2,12,31.8,12,31.8L9.4,30.5v3.8c0,1.3,2.6,25.6,31.9,46,5.1,3.8,8.9,7.7,8.9,21.7V231.1c0,14.1-2.6,17.9-8.9,21.7s-21.7,12.8-21.7,12.8l-5.1,2.6H130.8c33.2,0,53.7-5.1,75.4-20.4,2.6-2.6,6.4-3.8,8.9-6.4a126.15,126.15,0,0,1,.1-30.7M489.9,109.8v-6.4c-3.8,1.3-10.2,3.8-11.5,5.1,2.6,0,7.7,1.3,11.5,1.3M137.2,213.3H111.6V98.3h25.6c33.2,0,52.4,20.4,52.4,57.5-1.3,37-20.4,57.5-52.4,57.5" transform="translate(-9.4 -7.66)"/></g></svg>